<mxfile host="app.diagrams.net" agent="Mozilla/5.0 (Windows NT 10.0; Win64; x64; rv:128.0) Gecko/20100101 Firefox/128.0" version="24.8.2">
  <diagram name="Page-1" id="COUgB_-Vp2gjRW4EMAU4">
    <mxGraphModel dx="1195" dy="645" grid="1" gridSize="10" guides="1" tooltips="1" connect="1" arrows="1" fold="1" page="1" pageScale="1" pageWidth="827" pageHeight="1169" math="0" shadow="0">
      <root>
        <mxCell id="0" />
        <mxCell id="1" parent="0" />
        <mxCell id="TpKRsoXYZhHsRuoCiPgL-1" value="Activite" style="swimlane;fontStyle=0;childLayout=stackLayout;horizontal=1;startSize=26;fillColor=none;horizontalStack=0;resizeParent=1;resizeParentMax=0;resizeLast=0;collapsible=1;marginBottom=0;whiteSpace=wrap;html=1;" parent="1" vertex="1">
          <mxGeometry x="130" y="290" width="140" height="134" as="geometry" />
        </mxCell>
        <mxCell id="TpKRsoXYZhHsRuoCiPgL-2" value="nom" style="text;strokeColor=none;fillColor=none;align=left;verticalAlign=top;spacingLeft=4;spacingRight=4;overflow=hidden;rotatable=0;points=[[0,0.5],[1,0.5]];portConstraint=eastwest;whiteSpace=wrap;html=1;fontStyle=4" parent="TpKRsoXYZhHsRuoCiPgL-1" vertex="1">
          <mxGeometry y="26" width="140" height="26" as="geometry" />
        </mxCell>
        <mxCell id="TpKRsoXYZhHsRuoCiPgL-3" value="type" style="text;strokeColor=none;fillColor=none;align=left;verticalAlign=top;spacingLeft=4;spacingRight=4;overflow=hidden;rotatable=0;points=[[0,0.5],[1,0.5]];portConstraint=eastwest;whiteSpace=wrap;html=1;fontStyle=4" parent="TpKRsoXYZhHsRuoCiPgL-1" vertex="1">
          <mxGeometry y="52" width="140" height="26" as="geometry" />
        </mxCell>
        <mxCell id="TpKRsoXYZhHsRuoCiPgL-4" value="coutOrganisation" style="text;strokeColor=none;fillColor=none;align=left;verticalAlign=top;spacingLeft=4;spacingRight=4;overflow=hidden;rotatable=0;points=[[0,0.5],[1,0.5]];portConstraint=eastwest;whiteSpace=wrap;html=1;" parent="TpKRsoXYZhHsRuoCiPgL-1" vertex="1">
          <mxGeometry y="78" width="140" height="26" as="geometry" />
        </mxCell>
        <mxCell id="TpKRsoXYZhHsRuoCiPgL-16" value="&lt;div&gt;prixVente&lt;/div&gt;" style="text;html=1;align=left;verticalAlign=middle;whiteSpace=wrap;rounded=0;" parent="TpKRsoXYZhHsRuoCiPgL-1" vertex="1">
          <mxGeometry y="104" width="140" height="30" as="geometry" />
        </mxCell>
        <mxCell id="TpKRsoXYZhHsRuoCiPgL-5" value="Seance" style="swimlane;fontStyle=0;childLayout=stackLayout;horizontal=1;startSize=26;fillColor=none;horizontalStack=0;resizeParent=1;resizeParentMax=0;resizeLast=0;collapsible=1;marginBottom=0;whiteSpace=wrap;html=1;" parent="1" vertex="1">
          <mxGeometry x="130" y="570" width="140" height="104" as="geometry" />
        </mxCell>
        <mxCell id="TpKRsoXYZhHsRuoCiPgL-7" value="idSeance" style="text;strokeColor=none;fillColor=none;align=left;verticalAlign=top;spacingLeft=4;spacingRight=4;overflow=hidden;rotatable=0;points=[[0,0.5],[1,0.5]];portConstraint=eastwest;whiteSpace=wrap;html=1;fontStyle=4" parent="TpKRsoXYZhHsRuoCiPgL-5" vertex="1">
          <mxGeometry y="26" width="140" height="26" as="geometry" />
        </mxCell>
        <mxCell id="TpKRsoXYZhHsRuoCiPgL-6" value="dateHeure" style="text;strokeColor=none;fillColor=none;align=left;verticalAlign=top;spacingLeft=4;spacingRight=4;overflow=hidden;rotatable=0;points=[[0,0.5],[1,0.5]];portConstraint=eastwest;whiteSpace=wrap;html=1;" parent="TpKRsoXYZhHsRuoCiPgL-5" vertex="1">
          <mxGeometry y="52" width="140" height="26" as="geometry" />
        </mxCell>
        <mxCell id="TpKRsoXYZhHsRuoCiPgL-8" value="nbPlacesDispos" style="text;strokeColor=none;fillColor=none;align=left;verticalAlign=top;spacingLeft=4;spacingRight=4;overflow=hidden;rotatable=0;points=[[0,0.5],[1,0.5]];portConstraint=eastwest;whiteSpace=wrap;html=1;" parent="TpKRsoXYZhHsRuoCiPgL-5" vertex="1">
          <mxGeometry y="78" width="140" height="26" as="geometry" />
        </mxCell>
        <mxCell id="TpKRsoXYZhHsRuoCiPgL-9" value="Adherent" style="swimlane;fontStyle=0;childLayout=stackLayout;horizontal=1;startSize=26;fillColor=none;horizontalStack=0;resizeParent=1;resizeParentMax=0;resizeLast=0;collapsible=1;marginBottom=0;whiteSpace=wrap;html=1;" parent="1" vertex="1">
          <mxGeometry x="490" y="210" width="200" height="314" as="geometry" />
        </mxCell>
        <mxCell id="TpKRsoXYZhHsRuoCiPgL-10" value="noIdentification : varchar(11)" style="text;strokeColor=none;fillColor=none;align=left;verticalAlign=top;spacingLeft=4;spacingRight=4;overflow=hidden;rotatable=0;points=[[0,0.5],[1,0.5]];portConstraint=eastwest;whiteSpace=wrap;html=1;fontStyle=4" parent="TpKRsoXYZhHsRuoCiPgL-9" vertex="1">
          <mxGeometry y="26" width="200" height="26" as="geometry" />
        </mxCell>
        <mxCell id="TpKRsoXYZhHsRuoCiPgL-11" value="nom" style="text;strokeColor=none;fillColor=none;align=left;verticalAlign=top;spacingLeft=4;spacingRight=4;overflow=hidden;rotatable=0;points=[[0,0.5],[1,0.5]];portConstraint=eastwest;whiteSpace=wrap;html=1;" parent="TpKRsoXYZhHsRuoCiPgL-9" vertex="1">
          <mxGeometry y="52" width="200" height="26" as="geometry" />
        </mxCell>
        <mxCell id="TpKRsoXYZhHsRuoCiPgL-12" value="prenom" style="text;strokeColor=none;fillColor=none;align=left;verticalAlign=top;spacingLeft=4;spacingRight=4;overflow=hidden;rotatable=0;points=[[0,0.5],[1,0.5]];portConstraint=eastwest;whiteSpace=wrap;html=1;" parent="TpKRsoXYZhHsRuoCiPgL-9" vertex="1">
          <mxGeometry y="78" width="200" height="26" as="geometry" />
        </mxCell>
        <mxCell id="TpKRsoXYZhHsRuoCiPgL-13" value="adresse" style="text;html=1;align=left;verticalAlign=middle;whiteSpace=wrap;rounded=0;" parent="TpKRsoXYZhHsRuoCiPgL-9" vertex="1">
          <mxGeometry y="104" width="200" height="30" as="geometry" />
        </mxCell>
        <mxCell id="TpKRsoXYZhHsRuoCiPgL-14" value="dateNaissance" style="text;html=1;align=left;verticalAlign=middle;whiteSpace=wrap;rounded=0;" parent="TpKRsoXYZhHsRuoCiPgL-9" vertex="1">
          <mxGeometry y="134" width="200" height="30" as="geometry" />
        </mxCell>
        <mxCell id="TpKRsoXYZhHsRuoCiPgL-15" value="age" style="text;html=1;align=left;verticalAlign=middle;whiteSpace=wrap;rounded=0;" parent="TpKRsoXYZhHsRuoCiPgL-9" vertex="1">
          <mxGeometry y="164" width="200" height="30" as="geometry" />
        </mxCell>
        <mxCell id="9o-ZKUFGNv94BjigGT5U-23" value="&lt;div align=&quot;left&quot;&gt;email&lt;/div&gt;" style="text;html=1;align=left;verticalAlign=middle;whiteSpace=wrap;rounded=0;" vertex="1" parent="TpKRsoXYZhHsRuoCiPgL-9">
          <mxGeometry y="194" width="200" height="30" as="geometry" />
        </mxCell>
        <mxCell id="9o-ZKUFGNv94BjigGT5U-24" value="&lt;div align=&quot;left&quot;&gt;pseudo&lt;/div&gt;" style="text;html=1;align=left;verticalAlign=middle;whiteSpace=wrap;rounded=0;" vertex="1" parent="TpKRsoXYZhHsRuoCiPgL-9">
          <mxGeometry y="224" width="200" height="30" as="geometry" />
        </mxCell>
        <mxCell id="9o-ZKUFGNv94BjigGT5U-4" value="&lt;div align=&quot;left&quot;&gt;mdp&lt;/div&gt;" style="text;html=1;align=left;verticalAlign=middle;whiteSpace=wrap;rounded=0;" vertex="1" parent="TpKRsoXYZhHsRuoCiPgL-9">
          <mxGeometry y="254" width="200" height="30" as="geometry" />
        </mxCell>
        <mxCell id="9o-ZKUFGNv94BjigGT5U-12" value="&lt;div align=&quot;left&quot;&gt;role&lt;/div&gt;" style="text;html=1;align=left;verticalAlign=middle;whiteSpace=wrap;rounded=0;" vertex="1" parent="TpKRsoXYZhHsRuoCiPgL-9">
          <mxGeometry y="284" width="200" height="30" as="geometry" />
        </mxCell>
        <mxCell id="9o-ZKUFGNv94BjigGT5U-1" value="" style="endArrow=none;html=1;rounded=0;entryX=0.472;entryY=1.059;entryDx=0;entryDy=0;entryPerimeter=0;exitX=0.5;exitY=0;exitDx=0;exitDy=0;" edge="1" parent="1" source="TpKRsoXYZhHsRuoCiPgL-5" target="TpKRsoXYZhHsRuoCiPgL-16">
          <mxGeometry width="50" height="50" relative="1" as="geometry">
            <mxPoint x="170" y="490" as="sourcePoint" />
            <mxPoint x="220" y="440" as="targetPoint" />
          </mxGeometry>
        </mxCell>
        <mxCell id="9o-ZKUFGNv94BjigGT5U-2" value="1..n" style="text;html=1;align=center;verticalAlign=middle;whiteSpace=wrap;rounded=0;" vertex="1" parent="1">
          <mxGeometry x="190" y="424" width="60" height="30" as="geometry" />
        </mxCell>
        <mxCell id="9o-ZKUFGNv94BjigGT5U-3" value="1..1" style="text;html=1;align=center;verticalAlign=middle;whiteSpace=wrap;rounded=0;" vertex="1" parent="1">
          <mxGeometry x="200" y="540" width="60" height="30" as="geometry" />
        </mxCell>
        <mxCell id="9o-ZKUFGNv94BjigGT5U-5" value="Participation" style="swimlane;fontStyle=0;childLayout=stackLayout;horizontal=1;startSize=26;fillColor=none;horizontalStack=0;resizeParent=1;resizeParentMax=0;resizeLast=0;collapsible=1;marginBottom=0;whiteSpace=wrap;html=1;" vertex="1" parent="1">
          <mxGeometry x="520" y="570" width="140" height="104" as="geometry" />
        </mxCell>
        <mxCell id="9o-ZKUFGNv94BjigGT5U-6" value="idParticipation" style="text;strokeColor=none;fillColor=none;align=left;verticalAlign=top;spacingLeft=4;spacingRight=4;overflow=hidden;rotatable=0;points=[[0,0.5],[1,0.5]];portConstraint=eastwest;whiteSpace=wrap;html=1;fontStyle=4" vertex="1" parent="9o-ZKUFGNv94BjigGT5U-5">
          <mxGeometry y="26" width="140" height="26" as="geometry" />
        </mxCell>
        <mxCell id="9o-ZKUFGNv94BjigGT5U-7" value="note" style="text;strokeColor=none;fillColor=none;align=left;verticalAlign=top;spacingLeft=4;spacingRight=4;overflow=hidden;rotatable=0;points=[[0,0.5],[1,0.5]];portConstraint=eastwest;whiteSpace=wrap;html=1;" vertex="1" parent="9o-ZKUFGNv94BjigGT5U-5">
          <mxGeometry y="52" width="140" height="26" as="geometry" />
        </mxCell>
        <mxCell id="9o-ZKUFGNv94BjigGT5U-8" value="+ field: type" style="text;strokeColor=none;fillColor=none;align=left;verticalAlign=top;spacingLeft=4;spacingRight=4;overflow=hidden;rotatable=0;points=[[0,0.5],[1,0.5]];portConstraint=eastwest;whiteSpace=wrap;html=1;" vertex="1" parent="9o-ZKUFGNv94BjigGT5U-5">
          <mxGeometry y="78" width="140" height="26" as="geometry" />
        </mxCell>
        <mxCell id="9o-ZKUFGNv94BjigGT5U-9" value="" style="endArrow=none;html=1;rounded=0;exitX=0.982;exitY=0.236;exitDx=0;exitDy=0;exitPerimeter=0;entryX=0;entryY=0.5;entryDx=0;entryDy=0;" edge="1" parent="1" source="TpKRsoXYZhHsRuoCiPgL-6" target="9o-ZKUFGNv94BjigGT5U-7">
          <mxGeometry width="50" height="50" relative="1" as="geometry">
            <mxPoint x="300" y="620" as="sourcePoint" />
            <mxPoint x="350" y="570" as="targetPoint" />
          </mxGeometry>
        </mxCell>
        <mxCell id="9o-ZKUFGNv94BjigGT5U-10" value="" style="endArrow=none;html=1;rounded=0;entryX=0.5;entryY=1;entryDx=0;entryDy=0;exitX=0.5;exitY=0;exitDx=0;exitDy=0;" edge="1" parent="1" source="9o-ZKUFGNv94BjigGT5U-5" target="9o-ZKUFGNv94BjigGT5U-12">
          <mxGeometry width="50" height="50" relative="1" as="geometry">
            <mxPoint x="500" y="550" as="sourcePoint" />
            <mxPoint x="550" y="500" as="targetPoint" />
          </mxGeometry>
        </mxCell>
        <mxCell id="9o-ZKUFGNv94BjigGT5U-11" value="1..n" style="text;html=1;align=center;verticalAlign=middle;whiteSpace=wrap;rounded=0;" vertex="1" parent="1">
          <mxGeometry x="280" y="596" width="60" height="30" as="geometry" />
        </mxCell>
        <mxCell id="9o-ZKUFGNv94BjigGT5U-13" value="CategorieActivite" style="swimlane;fontStyle=0;childLayout=stackLayout;horizontal=1;startSize=26;fillColor=none;horizontalStack=0;resizeParent=1;resizeParentMax=0;resizeLast=0;collapsible=1;marginBottom=0;whiteSpace=wrap;html=1;" vertex="1" parent="1">
          <mxGeometry x="130" y="100" width="140" height="104" as="geometry" />
        </mxCell>
        <mxCell id="9o-ZKUFGNv94BjigGT5U-14" value="&lt;u&gt;idCategorie&lt;/u&gt;" style="text;strokeColor=none;fillColor=none;align=left;verticalAlign=top;spacingLeft=4;spacingRight=4;overflow=hidden;rotatable=0;points=[[0,0.5],[1,0.5]];portConstraint=eastwest;whiteSpace=wrap;html=1;" vertex="1" parent="9o-ZKUFGNv94BjigGT5U-13">
          <mxGeometry y="26" width="140" height="26" as="geometry" />
        </mxCell>
        <mxCell id="9o-ZKUFGNv94BjigGT5U-15" value="nom" style="text;strokeColor=none;fillColor=none;align=left;verticalAlign=top;spacingLeft=4;spacingRight=4;overflow=hidden;rotatable=0;points=[[0,0.5],[1,0.5]];portConstraint=eastwest;whiteSpace=wrap;html=1;" vertex="1" parent="9o-ZKUFGNv94BjigGT5U-13">
          <mxGeometry y="52" width="140" height="26" as="geometry" />
        </mxCell>
        <mxCell id="9o-ZKUFGNv94BjigGT5U-16" value="+ field: type" style="text;strokeColor=none;fillColor=none;align=left;verticalAlign=top;spacingLeft=4;spacingRight=4;overflow=hidden;rotatable=0;points=[[0,0.5],[1,0.5]];portConstraint=eastwest;whiteSpace=wrap;html=1;" vertex="1" parent="9o-ZKUFGNv94BjigGT5U-13">
          <mxGeometry y="78" width="140" height="26" as="geometry" />
        </mxCell>
        <mxCell id="9o-ZKUFGNv94BjigGT5U-17" value="&lt;div&gt;1..1&lt;/div&gt;" style="text;html=1;align=center;verticalAlign=middle;whiteSpace=wrap;rounded=0;" vertex="1" parent="1">
          <mxGeometry x="470" y="607" width="60" height="30" as="geometry" />
        </mxCell>
        <mxCell id="9o-ZKUFGNv94BjigGT5U-18" value="&lt;div&gt;1..1&lt;/div&gt;" style="text;html=1;align=center;verticalAlign=middle;whiteSpace=wrap;rounded=0;" vertex="1" parent="1">
          <mxGeometry x="600" y="540" width="60" height="30" as="geometry" />
        </mxCell>
        <mxCell id="9o-ZKUFGNv94BjigGT5U-19" value="&lt;div&gt;1..n&lt;/div&gt;" style="text;html=1;align=center;verticalAlign=middle;whiteSpace=wrap;rounded=0;" vertex="1" parent="1">
          <mxGeometry x="590" y="464" width="60" height="30" as="geometry" />
        </mxCell>
        <mxCell id="9o-ZKUFGNv94BjigGT5U-20" value="" style="endArrow=none;html=1;rounded=0;entryX=0.494;entryY=1.006;entryDx=0;entryDy=0;entryPerimeter=0;exitX=0.5;exitY=0;exitDx=0;exitDy=0;" edge="1" parent="1" source="TpKRsoXYZhHsRuoCiPgL-1" target="9o-ZKUFGNv94BjigGT5U-16">
          <mxGeometry width="50" height="50" relative="1" as="geometry">
            <mxPoint x="180" y="260" as="sourcePoint" />
            <mxPoint x="230" y="210" as="targetPoint" />
          </mxGeometry>
        </mxCell>
        <mxCell id="9o-ZKUFGNv94BjigGT5U-21" value="1..n" style="text;html=1;align=center;verticalAlign=middle;whiteSpace=wrap;rounded=0;" vertex="1" parent="1">
          <mxGeometry x="190" y="194" width="60" height="30" as="geometry" />
        </mxCell>
        <mxCell id="9o-ZKUFGNv94BjigGT5U-22" value="1..1" style="text;html=1;align=center;verticalAlign=middle;whiteSpace=wrap;rounded=0;" vertex="1" parent="1">
          <mxGeometry x="200" y="260" width="60" height="30" as="geometry" />
        </mxCell>
      </root>
    </mxGraphModel>
  </diagram>
</mxfile>
